<svg width="48" height="48" viewBox="0 0 48 48" fill="none" xmlns="http://www.w3.org/2000/svg">
<path fill-rule="evenodd" clip-rule="evenodd" d="M40.8714 10.5903C41.3024 10.2456 41.9913 10.3319 42.2501 10.8492C45.0944 14.7275 46.5595 19.2094 46.5595 24.036C46.6458 36.1884 36.6479 46.1862 24.323 46.1862C19.8387 46.1862 15.5999 44.8938 11.9039 42.41L12.5153 44.5491C12.6875 45.0659 12.3428 45.6694 11.8255 45.7553C11.8255 45.9274 11.7392 45.9274 11.6534 45.9274C11.2224 45.9274 10.7914 45.6694 10.7051 45.238L9.0675 39.6362L14.5839 37.9981C15.1008 37.826 15.7043 38.1711 15.7901 38.6879C15.9627 39.2052 15.618 39.8083 15.1008 39.8941L12.7204 40.5747C16.1422 42.9356 20.1463 44.2039 24.2367 44.2039C35.4412 44.2039 44.4909 35.068 44.4909 23.9498C44.4909 19.6404 43.1121 15.5032 40.6125 11.9695C40.2678 11.5386 40.3541 10.8492 40.8714 10.5903ZM24.2796 2C28.7926 2 33.0973 3.33026 36.7971 5.82684L36.4955 3.57133C36.4227 3.02673 36.8096 2.52577 37.3603 2.45367C37.9054 2.37974 38.4166 2.76454 38.4899 3.31005L39.2456 8.96765L33.5329 9.71934C33.487 9.72622 33.4429 9.72852 33.3984 9.72852C32.9015 9.72852 32.4701 9.36439 32.4024 8.8648C32.3295 8.31974 32.7169 7.81786 33.2671 7.74577L35.615 7.43673C32.2613 5.18857 28.3649 3.99056 24.2796 3.99056C13.1039 3.99056 4.01247 12.9901 4.01247 24.0509C4.01247 28.6221 5.52438 32.9269 8.38629 36.5008C8.73005 36.9333 8.65722 37.5583 8.22067 37.8999C8.03649 38.0459 7.81613 38.1153 7.59809 38.1153C7.30119 38.1153 7.00706 37.9862 6.80851 37.7378C3.66361 33.8081 2 29.0758 2 24.0509C2 11.8922 11.9946 2 24.2796 2ZM22.8822 8.86596C23.2787 8.43226 23.9619 8.43232 24.3584 8.8661C26.2681 10.9557 27.2403 12.5362 27.2403 13.8002C27.2403 15.4077 26.1377 16.754 24.6381 17.181L24.6371 22.2817L26.2212 20.6984C25.7608 19.4384 26.0167 17.9877 27.0116 16.9935C27.9055 16.0996 29.7098 15.6696 32.5392 15.5417C33.1264 15.5152 33.6098 15.9984 33.5834 16.5856C33.4564 19.4136 33.0258 21.2193 32.1313 22.1138C30.8533 23.3909 28.8238 23.4498 27.4124 22.3375L24.6371 25.1117L24.6392 28.1789C24.6498 28.2627 24.6497 28.3475 24.6391 28.4312L24.6373 36.5977C24.6373 37.15 24.1896 37.5977 23.6373 37.5977C23.1245 37.5977 22.7018 37.2117 22.644 36.7143L22.6373 36.5977L22.6371 28.7097L19.623 25.6959C18.2703 26.4162 16.573 26.2329 15.4529 25.1135C14.5587 24.2193 14.1281 22.4136 14.0011 19.5856C13.9747 18.9984 14.458 18.5152 15.0452 18.5417C17.8747 18.6696 19.679 19.0996 20.5729 19.9935C21.734 21.1546 21.8884 22.9377 21.0714 24.313L22.6371 25.8797L22.6369 17.1907C21.1197 16.7747 20.0001 15.42 20.0001 13.8002C20.0001 12.5358 20.9725 10.9546 22.8822 8.86596ZM16.0721 20.6127L16.1029 20.9252C16.2609 22.4305 16.5409 23.3731 16.8668 23.6991C17.455 24.2868 18.45 24.2676 19.0887 23.6293C19.7273 22.9907 19.7464 21.9954 19.1587 21.4077C18.8125 21.0615 17.7704 20.7673 16.096 20.6157L16.0721 20.6127ZM31.5111 17.6127L31.1996 17.6439C29.6939 17.8021 28.7516 18.0819 28.4255 18.408C27.8377 18.9954 27.8569 19.9905 28.4958 20.6293C29.1345 21.268 30.1292 21.287 30.7174 20.6993C31.0639 20.3528 31.3584 19.3102 31.5097 17.6364L31.5111 17.6127ZM23.6201 11.0577L23.4212 11.2991C22.4686 12.4748 22.0001 13.3392 22.0001 13.8002C22.0001 14.6321 22.7171 15.3223 23.6202 15.3223C24.5232 15.3223 25.2403 14.6321 25.2403 13.8002C25.2403 13.3108 24.7113 12.3657 23.6349 11.0753L23.6201 11.0577Z" fill="black"/>
</svg>
